<svg xmlns="http://www.w3.org/2000/svg" xmlns:xlink="http://www.w3.org/1999/xlink" width="192" zoomAndPan="magnify" viewBox="0 0 144 143.999998" height="192" preserveAspectRatio="xMidYMid meet" version="1.0"><defs><clipPath id="c976584ddb"><path d="M 17 18 L 126 18 L 126 128 L 17 128 Z M 17 18 " clip-rule="nonzero"/></clipPath><clipPath id="d7eb0ab9fe"><path d="M 45.097656 -3.214844 L 146.527344 43.6875 L 98.683594 147.160156 L -2.75 100.257812 Z M 45.097656 -3.214844 " clip-rule="nonzero"/></clipPath><clipPath id="9aea57ae73"><path d="M 45.097656 -3.214844 L 146.527344 43.6875 L 98.683594 147.160156 L -2.75 100.257812 Z M 45.097656 -3.214844 " clip-rule="nonzero"/></clipPath><clipPath id="c3faee5395"><path d="M 78 51 L 139 51 L 139 106 L 78 106 Z M 78 51 " clip-rule="nonzero"/></clipPath><clipPath id="2e37d6baca"><path d="M 20.339844 61.375 L 132.984375 49.65625 L 139.5 112.316406 L 26.859375 124.035156 Z M 20.339844 61.375 " clip-rule="nonzero"/></clipPath><clipPath id="124cdbc148"><path d="M 20.339844 61.375 L 132.984375 49.65625 L 139.5 112.316406 L 26.859375 124.035156 Z M 20.339844 61.375 " clip-rule="nonzero"/></clipPath><clipPath id="ffd9deee66"><path d="M 22 83 L 95 83 L 95 121 L 22 121 Z M 22 83 " clip-rule="nonzero"/></clipPath><clipPath id="32a6c4d6c0"><path d="M 20.339844 61.375 L 132.984375 49.65625 L 139.5 112.316406 L 26.859375 124.035156 Z M 20.339844 61.375 " clip-rule="nonzero"/></clipPath><clipPath id="8a84f1c1f4"><path d="M 20.339844 61.375 L 132.984375 49.65625 L 139.5 112.316406 L 26.859375 124.035156 Z M 20.339844 61.375 " clip-rule="nonzero"/></clipPath><clipPath id="6ca53fb40c"><path d="M 22.660156 83.550781 L 91.785156 76.359375 L 96.015625 117.011719 L 26.890625 124.203125 Z M 22.660156 83.550781 " clip-rule="nonzero"/></clipPath></defs><g clip-path="url(#c976584ddb)"><g clip-path="url(#d7eb0ab9fe)"><g clip-path="url(#9aea57ae73)"><path fill="#5170ff" d="M 120.359375 49.289062 C 120.71875 50.089844 121.066406 50.898438 121.402344 51.710938 C 121.683594 52.382812 121.984375 53.042969 122.292969 53.703125 C 122.84375 54.9375 123.210938 56.191406 123.566406 57.496094 C 123.65625 57.804688 123.75 58.113281 123.84375 58.429688 C 124.988281 62.3125 125.515625 66.246094 125.777344 70.28125 C 125.800781 70.582031 125.820312 70.878906 125.84375 71.183594 C 126.59375 84.617188 121.328125 98.621094 112.527344 108.699219 C 102.402344 119.832031 88.757812 126.460938 73.699219 127.210938 C 59.019531 127.75 44.839844 122.207031 34.078125 112.261719 C 23.742188 102.433594 17.847656 88.664062 17.324219 74.472656 C 16.980469 60.203125 22.296875 46.152344 32.074219 35.730469 C 42.527344 24.847656 56.484375 18.996094 71.539062 18.679688 C 92.136719 18.53125 111.453125 30.816406 120.359375 49.289062 Z M 81.914062 23.390625 C 81.6875 23.34375 81.460938 23.296875 81.230469 23.25 C 74.683594 21.953125 67.953125 22.058594 61.441406 23.445312 C 61.0625 23.511719 60.683594 23.578125 60.304688 23.648438 C 59.570312 23.785156 58.929688 23.953125 58.261719 24.304688 C 58.007812 24.433594 57.757812 24.566406 57.496094 24.703125 L 58.882812 25.34375 C 58.859375 25.796875 58.835938 26.25 58.808594 26.710938 L 59.734375 27.136719 C 59.746094 27.511719 59.753906 27.890625 59.765625 28.273438 C 60.445312 28.011719 61.003906 27.613281 61.4375 27.085938 C 61.050781 26.722656 60.664062 26.359375 60.265625 25.984375 C 60.367188 25.566406 60.464844 25.152344 60.570312 24.722656 C 61.097656 24.78125 61.625 24.839844 62.167969 24.902344 C 61.949219 25.171875 61.734375 25.441406 61.507812 25.71875 C 61.703125 25.902344 61.898438 26.085938 62.09375 26.269531 C 62.277344 26.078125 62.457031 25.882812 62.644531 25.683594 C 64.847656 25.929688 65.804688 27.105469 67.140625 28.769531 C 67.472656 29.195312 67.835938 29.589844 68.238281 29.949219 C 68.164062 30.128906 68.09375 30.3125 68.019531 30.496094 C 67.90625 31.003906 68.039062 31.484375 68.417969 31.941406 C 68.761719 32.34375 69.105469 32.617188 69.460938 32.757812 C 69.089844 32.957031 68.722656 33.152344 68.339844 33.359375 C 68.238281 33.21875 68.136719 33.078125 68.027344 32.933594 C 67.769531 32.589844 67.40625 32.328125 66.9375 32.152344 L 66.726562 32.613281 C 66.882812 32.871094 67.042969 33.128906 67.203125 33.394531 C 67.160156 33.769531 67.09375 34.113281 67.007812 34.421875 C 65.796875 34.117188 64.96875 33.699219 64.523438 33.167969 C 64.320312 32.773438 64.179688 32.460938 64.097656 32.238281 C 63.753906 32.058594 63.402344 31.894531 63.050781 31.734375 C 62.859375 31.648438 62.667969 31.5625 62.46875 31.476562 C 62.320312 31.410156 62.171875 31.34375 62.019531 31.277344 L 62.339844 30.585938 C 62.542969 30.699219 62.742188 30.816406 62.949219 30.9375 C 63.460938 31.183594 63.972656 31.210938 64.488281 31.015625 C 64.679688 30.921875 64.875 30.828125 65.074219 30.730469 C 65.195312 29.742188 64.851562 29.074219 64.265625 28.289062 C 63.5 27.613281 62.546875 27.53125 61.5625 27.421875 C 61.632812 27.570312 61.703125 27.71875 61.773438 27.871094 C 61.878906 28.246094 61.792969 28.742188 61.507812 29.359375 C 60.902344 29.265625 60.300781 29.171875 59.679688 29.074219 C 59.90625 29.746094 60.152344 30.25 60.527344 30.867188 C 60.359375 30.785156 60.191406 30.699219 60.015625 30.613281 C 59.445312 30.363281 58.960938 30.226562 58.34375 30.136719 C 58.597656 29.792969 58.851562 29.445312 59.109375 29.089844 L 58.648438 28.878906 C 58.390625 29.035156 58.132812 29.191406 57.867188 29.355469 C 57.394531 29.347656 56.921875 29.339844 56.453125 29.316406 C 55.625 29.292969 54.917969 29.371094 54.121094 29.585938 C 53.746094 29.996094 53.457031 30.421875 53.25 30.863281 L 53.710938 31.074219 C 53.695312 31.242188 53.679688 31.40625 53.664062 31.574219 C 53.773438 32.4375 54.121094 32.714844 54.746094 33.304688 C 54.929688 33.484375 55.113281 33.664062 55.304688 33.847656 C 55.6875 34.195312 56.179688 34.492188 56.78125 34.734375 C 56.667969 34.945312 56.550781 35.152344 56.4375 35.363281 C 56.191406 35.84375 56.140625 36.292969 56.285156 36.714844 C 56.359375 36.851562 56.433594 36.988281 56.511719 37.132812 C 56.773438 37.164062 57.039062 37.191406 57.308594 37.222656 C 57.445312 36.984375 57.578125 36.746094 57.714844 36.5 C 58.097656 35.976562 58.507812 35.644531 58.941406 35.507812 C 59.878906 35.117188 60.074219 34.632812 60.53125 33.738281 C 60.667969 33.476562 60.808594 33.207031 60.949219 32.9375 C 61.050781 32.734375 61.152344 32.53125 61.257812 32.324219 C 61.613281 32.519531 61.972656 32.722656 62.328125 32.925781 C 62.523438 33.035156 62.722656 33.148438 62.929688 33.261719 C 63.28125 33.5 63.617188 33.882812 63.9375 34.402344 C 63.894531 34.96875 63.835938 35.5 63.757812 36 C 64.59375 36.230469 65.289062 36.3125 66.152344 36.269531 C 66.148438 36.457031 66.144531 36.644531 66.140625 36.835938 C 66.136719 38.449219 66.289062 39.308594 67.199219 40.675781 C 67.148438 41.105469 67.050781 41.527344 66.894531 41.933594 C 66.765625 42.375 66.664062 42.792969 66.59375 43.195312 L 66.949219 43.640625 C 66.90625 44.171875 66.84375 44.707031 66.769531 45.238281 C 66.640625 45.089844 66.511719 44.945312 66.378906 44.792969 C 65.8125 44.226562 65.226562 43.804688 64.550781 43.371094 L 65.855469 42.5 C 65.976562 42.394531 66.097656 42.289062 66.222656 42.183594 C 66.214844 41.996094 66.210938 41.808594 66.203125 41.613281 C 66.046875 41.632812 65.886719 41.648438 65.722656 41.664062 C 64.699219 41.640625 63.859375 41.203125 62.925781 40.816406 C 62.113281 40.574219 61.546875 40.613281 60.71875 40.757812 C 61.191406 41.351562 61.605469 41.359375 62.332031 41.503906 C 62.082031 41.851562 61.828125 42.195312 61.566406 42.550781 C 61.71875 42.929688 61.921875 43.304688 62.171875 43.671875 C 62.527344 43.796875 62.871094 43.859375 63.199219 43.867188 C 63.207031 44.054688 63.210938 44.242188 63.21875 44.4375 C 62.988281 44.40625 62.761719 44.375 62.527344 44.34375 C 61.640625 44.257812 60.800781 44.265625 59.914062 44.308594 C 60.242188 44 60.570312 43.6875 60.910156 43.367188 C 59.878906 43.296875 58.867188 43.261719 57.839844 43.347656 C 57.65625 43.542969 57.472656 43.738281 57.289062 43.933594 C 57.292969 44.121094 57.300781 44.308594 57.304688 44.503906 C 57.097656 44.417969 56.886719 44.332031 56.671875 44.246094 C 55.488281 44.035156 55.042969 44.34375 54.019531 44.945312 L 53.804688 45.40625 L 53.34375 45.191406 L 53.011719 45.914062 C 52.640625 46.496094 52.4375 46.675781 51.777344 46.902344 C 51.339844 46.984375 50.90625 47.058594 50.464844 47.121094 C 50.03125 47.179688 49.578125 47.375 49.097656 47.710938 C 48.816406 48.222656 48.550781 48.769531 48.304688 49.355469 C 48.171875 49.652344 48.039062 49.945312 47.90625 50.25 C 47.804688 50.480469 47.707031 50.707031 47.605469 50.941406 C 47.160156 49.917969 47.304688 49.191406 47.519531 48.101562 C 46.792969 47.433594 45.996094 47.054688 45.085938 46.695312 C 44.863281 46.777344 44.640625 46.859375 44.410156 46.945312 C 44.1875 46.78125 43.960938 46.621094 43.726562 46.453125 C 43.195312 46.078125 42.613281 45.910156 41.980469 45.957031 C 40.878906 46.316406 40.546875 46.710938 39.882812 47.652344 C 39.777344 47.789062 39.675781 47.925781 39.566406 48.070312 C 38.828125 49.117188 38.683594 49.835938 38.851562 51.09375 C 38.933594 51.390625 39.222656 51.644531 39.71875 51.863281 C 40.273438 52.132812 40.78125 52.164062 41.238281 51.953125 C 41.566406 51.726562 41.796875 51.449219 41.921875 51.113281 C 42.492188 51.285156 43.058594 51.453125 43.644531 51.628906 C 43.402344 51.855469 43.160156 52.078125 42.910156 52.308594 C 42.214844 52.988281 41.804688 53.617188 41.457031 54.542969 C 41.679688 54.636719 41.902344 54.734375 42.128906 54.832031 C 42.605469 55.066406 42.960938 55.328125 43.199219 55.625 C 42.984375 56.304688 42.710938 56.949219 42.4375 57.609375 C 42.285156 58.035156 42.257812 58.445312 42.363281 58.835938 C 42.789062 59.558594 43.492188 59.714844 44.242188 60.03125 C 44.4375 60.210938 44.628906 60.394531 44.828125 60.582031 C 44.996094 60.441406 45.167969 60.296875 45.339844 60.152344 C 46.226562 59.648438 46.675781 59.703125 47.652344 59.925781 L 48.007812 60.371094 C 49.164062 61.265625 50.367188 62.070312 51.714844 62.644531 C 51.714844 62.808594 51.710938 62.972656 51.707031 63.140625 C 51.796875 64.460938 52.390625 65.773438 53.308594 66.726562 C 53.621094 66.996094 53.933594 67.265625 54.246094 67.53125 C 54.484375 67.78125 54.667969 68.148438 54.792969 68.636719 C 54.785156 68.882812 54.773438 69.125 54.765625 69.378906 C 54.816406 71.535156 55.433594 72.277344 56.945312 73.75 C 57.234375 73.980469 57.527344 74.210938 57.820312 74.433594 C 58.621094 75.097656 59.027344 75.730469 59.539062 76.625 L 60 76.839844 C 59.359375 78.726562 57.996094 79.472656 56.355469 80.476562 C 55.796875 81.191406 55.277344 81.925781 54.75 82.664062 C 54.152344 83.410156 53.652344 83.949219 52.835938 84.453125 C 52.296875 84.472656 51.742188 84.441406 51.179688 84.367188 C 50.296875 84.277344 49.492188 84.472656 48.773438 84.953125 C 48.625 85.210938 48.476562 85.464844 48.324219 85.726562 C 48.175781 85.929688 48.023438 86.132812 47.867188 86.339844 C 47.765625 86.484375 47.667969 86.628906 47.5625 86.773438 C 47.296875 86.746094 47.035156 86.714844 46.761719 86.6875 C 46.117188 87.089844 45.527344 87.546875 44.921875 88.003906 C 44.515625 88.238281 44.125 88.34375 43.75 88.328125 C 43.21875 88.136719 42.875 87.878906 42.464844 87.5 C 42.371094 88.101562 42.277344 88.714844 42.179688 89.328125 C 41.476562 89.671875 41.136719 89.695312 40.339844 89.597656 C 40.085938 89.574219 39.832031 89.546875 39.570312 89.523438 C 39.386719 89.714844 39.207031 89.910156 39.019531 90.109375 L 38.324219 89.789062 C 38.191406 90.027344 38.058594 90.265625 37.921875 90.511719 C 37.304688 91.355469 36.988281 91.542969 36 91.792969 C 36.011719 92.027344 36.023438 92.265625 36.035156 92.507812 C 35.890625 93.097656 35.667969 93.503906 35.359375 93.730469 C 35.175781 93.832031 34.992188 93.933594 34.800781 94.039062 C 34.4375 94.238281 34.105469 94.460938 33.8125 94.703125 C 33.667969 95.714844 33.8125 96.496094 34.234375 97.421875 C 33.148438 97.003906 32.546875 96.753906 31.792969 95.851562 C 31.234375 94.539062 31.261719 93.683594 31.738281 92.375 C 32.703125 90.171875 34.011719 88.222656 35.453125 86.304688 C 36.53125 84.851562 37.425781 83.273438 38.347656 81.71875 C 38.628906 81.253906 38.917969 80.792969 39.207031 80.335938 C 40.003906 79.046875 40.589844 77.679688 40.96875 76.234375 C 40.738281 75.507812 40.433594 74.976562 40.050781 74.320312 C 39.308594 72.964844 39.339844 71.925781 39.480469 70.414062 C 39.527344 69.660156 39.464844 69.050781 39.328125 68.3125 C 39.195312 67.4375 39.207031 67.28125 39.632812 66.441406 C 39.824219 66.207031 40.011719 65.96875 40.207031 65.726562 C 40.378906 65.421875 40.550781 65.117188 40.71875 64.808594 C 41.351562 63.902344 41.78125 63.730469 42.75 63.261719 C 43.476562 62.394531 43.71875 61.945312 43.761719 60.804688 C 43.734375 60.554688 43.703125 60.304688 43.675781 60.046875 L 43.105469 60.066406 L 42.894531 60.527344 C 41.890625 59.304688 41.335938 58.308594 41.230469 57.535156 C 41.011719 56.292969 40.390625 55.605469 39.609375 54.636719 C 39.316406 54.242188 39.101562 53.855469 38.96875 53.476562 C 38.910156 53.328125 38.855469 53.183594 38.796875 53.03125 C 38.5625 52.9375 38.324219 52.847656 38.082031 52.753906 C 36.632812 52.171875 35.679688 50.550781 35.027344 49.1875 C 34.949219 48.871094 35 48.445312 35.175781 47.90625 C 35.441406 46.933594 35.320312 46.539062 35.042969 45.601562 C 34.828125 44.726562 34.828125 43.859375 34.820312 42.964844 C 34.816406 42.78125 34.8125 42.601562 34.808594 42.414062 C 34.800781 41.976562 34.796875 41.535156 34.792969 41.09375 L 34.222656 41.113281 C 33.886719 42.183594 33.894531 43.195312 33.910156 44.304688 C 33.894531 44.6875 33.777344 45.105469 33.5625 45.570312 L 33.101562 45.355469 C 33.175781 45.117188 33.25 44.882812 33.328125 44.636719 C 33.390625 44.382812 33.449219 44.125 33.511719 43.863281 L 33.15625 43.417969 C 33.199219 42.886719 33.261719 42.351562 33.335938 41.820312 C 33.367188 41.523438 33.402344 41.226562 33.4375 40.921875 C 33.460938 40.691406 33.488281 40.460938 33.515625 40.222656 L 32.945312 40.242188 C 32.472656 40.792969 32.035156 41.347656 31.605469 41.929688 C 31.476562 42.101562 31.347656 42.273438 31.21875 42.445312 C 26.507812 48.769531 23.527344 55.738281 21.9375 63.441406 C 21.898438 63.632812 21.855469 63.828125 21.816406 64.023438 C 20.324219 71.339844 20.792969 79.121094 22.863281 86.277344 C 22.9375 86.542969 23.015625 86.808594 23.089844 87.078125 C 24.195312 90.777344 25.539062 94.253906 27.417969 97.628906 C 27.503906 97.785156 27.59375 97.945312 27.683594 98.109375 C 30.199219 102.554688 33.386719 106.484375 37.121094 109.960938 C 37.253906 110.085938 37.390625 110.214844 37.527344 110.34375 C 46.980469 119.300781 60.121094 123.816406 73.03125 123.574219 C 78.351562 123.40625 83.496094 122.285156 88.519531 120.5625 C 88.6875 120.503906 88.855469 120.449219 89.027344 120.390625 C 91.574219 119.527344 93.929688 118.46875 96.265625 117.140625 C 96.417969 117.054688 96.566406 116.972656 96.722656 116.882812 C 104.261719 112.636719 110.671875 106.410156 115.046875 98.933594 C 115.191406 98.6875 115.339844 98.441406 115.488281 98.1875 C 117.203125 95.171875 118.570312 92.042969 119.742188 88.78125 C 118.480469 88.640625 117.527344 89.101562 116.476562 89.789062 C 115.945312 90.425781 115.523438 91.066406 115.105469 91.777344 C 114.855469 92.15625 114.472656 92.507812 113.953125 92.824219 L 113.257812 92.503906 C 113.347656 91.613281 113.441406 90.722656 113.535156 89.832031 C 113.558594 89.578125 113.582031 89.328125 113.609375 89.070312 C 113.761719 87.621094 114.007812 86.332031 114.507812 84.960938 L 113.355469 84.425781 C 113.375 84.226562 113.398438 84.03125 113.421875 83.828125 C 113.425781 82.949219 113.332031 82.488281 112.929688 81.707031 C 112.417969 81.363281 111.863281 81.050781 111.257812 80.777344 C 110.105469 80.222656 109.507812 79.925781 108.972656 78.757812 C 108.746094 78.664062 108.515625 78.570312 108.28125 78.472656 C 107.820312 78.234375 107.460938 77.835938 107.207031 77.277344 C 107.128906 76.996094 107.046875 76.714844 106.96875 76.429688 C 106.886719 76.207031 106.804688 75.984375 106.71875 75.753906 C 106.371094 75.652344 106.027344 75.589844 105.6875 75.558594 C 105.570312 76.621094 105.730469 77.289062 106.113281 78.277344 C 106.144531 78.710938 106.15625 79.089844 106.148438 79.414062 C 106.984375 79.648438 107.433594 79.710938 108.316406 79.574219 C 108.65625 80.367188 108.925781 81.050781 108.960938 81.921875 C 108.394531 82.957031 107.472656 83.328125 106.394531 83.726562 C 104.398438 84.195312 102.460938 83.996094 100.457031 83.734375 C 100.199219 83.722656 99.941406 83.714844 99.679688 83.707031 C 99.5 83.898438 99.316406 84.09375 99.128906 84.289062 C 99.210938 84.511719 99.292969 84.738281 99.378906 84.964844 C 100.570312 85.421875 101.652344 85.671875 102.929688 85.765625 C 101.210938 88.160156 99.140625 89.617188 96.351562 90.492188 C 94.96875 90.933594 93.640625 91.476562 92.898438 92.800781 C 92.839844 93.003906 92.78125 93.210938 92.71875 93.421875 C 92.648438 93.652344 92.578125 93.882812 92.503906 94.117188 C 92.433594 94.359375 92.359375 94.601562 92.285156 94.851562 C 92.109375 95.371094 91.929688 95.886719 91.742188 96.402344 C 91.664062 96.636719 91.582031 96.875 91.496094 97.113281 C 91.25 97.695312 91.035156 98.105469 90.578125 98.542969 C 90.125 98.527344 89.667969 98.5 89.210938 98.472656 C 88.621094 98.539062 88.058594 98.746094 87.523438 99.09375 C 87.171875 99.738281 86.910156 100.378906 86.667969 101.070312 C 86.5625 101.257812 86.460938 101.441406 86.351562 101.632812 C 85.941406 101.742188 85.527344 101.832031 85.109375 101.894531 C 84.734375 102.265625 84.367188 102.632812 84.003906 103.011719 C 82.925781 104.007812 81.535156 104.699219 80.078125 104.894531 C 79.660156 104.835938 79.238281 104.75 78.8125 104.640625 C 78.605469 104.589844 78.394531 104.535156 78.179688 104.480469 C 77.554688 104.285156 76.984375 104.058594 76.40625 103.753906 C 76.222656 103.261719 76.386719 102.929688 76.515625 102.421875 C 76.71875 101.527344 76.816406 100.691406 76.84375 99.773438 C 76.886719 98.609375 77.097656 97.578125 77.402344 96.453125 C 77.511719 96.027344 77.550781 95.511719 77.519531 94.90625 C 77.605469 93.589844 78.070312 92.519531 78.757812 91.398438 C 78.90625 91.28125 79.054688 91.167969 79.207031 91.050781 C 80.265625 90.175781 80.625 88.433594 80.777344 87.117188 C 80.796875 86.246094 80.757812 85.441406 80.601562 84.585938 C 80.566406 83.640625 80.828125 83.238281 81.335938 82.453125 C 81.625 82.011719 81.875 81.585938 82.085938 81.171875 C 81.957031 80.6875 81.664062 80.324219 81.207031 80.082031 C 80.773438 79.777344 80.511719 79.453125 80.414062 79.101562 C 80.296875 78.753906 80.074219 78.523438 79.753906 78.410156 C 79.035156 78.175781 78.421875 77.984375 77.667969 78.007812 C 75.449219 77.394531 74.019531 76.710938 73.378906 75.953125 C 72.789062 74.671875 72.65625 73.414062 72.59375 72.019531 C 72.519531 71.859375 72.449219 71.699219 72.375 71.535156 C 71.898438 69.910156 73.734375 67.292969 74.492188 65.878906 C 75.546875 64.167969 77.089844 63.359375 79.003906 62.851562 C 79.183594 62.8125 79.363281 62.773438 79.550781 62.730469 C 80.367188 62.476562 80.875 61.871094 81.476562 61.28125 C 81.746094 61.15625 82.011719 61.03125 82.285156 60.902344 C 82.75 60.71875 83.03125 60.414062 83.125 59.996094 C 83.125 59.839844 83.128906 59.683594 83.132812 59.527344 L 82.207031 59.097656 C 82.8125 57.992188 83.417969 56.882812 84.039062 55.742188 C 84.988281 56.089844 85.949219 56.441406 86.914062 56.792969 C 87.242188 56.484375 87.570312 56.171875 87.910156 55.851562 C 87.917969 55.410156 87.828125 54.996094 87.644531 54.609375 L 86.953125 54.289062 C 87.097656 54.171875 87.246094 54.054688 87.398438 53.933594 C 87.835938 54.019531 88.253906 54.121094 88.65625 54.238281 L 88.871094 53.777344 C 89.050781 53.832031 89.234375 53.890625 89.421875 53.949219 C 90.234375 54.097656 90.648438 53.984375 91.421875 53.710938 C 92.363281 53.40625 93.09375 53.230469 94.09375 53.390625 C 94.296875 52.746094 94.503906 52.101562 94.714844 51.4375 L 95.40625 51.757812 C 95.347656 52.289062 95.210938 52.785156 94.996094 53.25 C 95.0625 53.5 95.238281 53.6875 95.519531 53.808594 C 96.710938 54.351562 97.871094 54.875 99.152344 55.167969 C 99.886719 54.800781 100.011719 54.515625 100.359375 53.765625 C 100.707031 54.019531 101.050781 54.273438 101.40625 54.53125 L 101.832031 53.609375 L 103.894531 54 L 104.105469 53.539062 L 101.335938 52.257812 C 101.4375 51.84375 101.539062 51.425781 101.640625 50.996094 C 102.308594 50.667969 102.8125 50.507812 103.558594 50.484375 L 103.878906 49.792969 C 103.554688 49.566406 103.171875 49.386719 102.726562 49.257812 C 102.160156 49.414062 101.597656 49.621094 101.039062 49.878906 C 100.785156 49.953125 100.53125 50.027344 100.269531 50.101562 C 100.078125 50.191406 99.886719 50.28125 99.6875 50.375 C 99.554688 50.695312 99.492188 51.039062 99.492188 51.40625 C 99.425781 51.746094 99.359375 52.089844 99.296875 52.433594 L 98.832031 52.222656 C 98.703125 52.375 98.574219 52.53125 98.441406 52.6875 C 97.652344 53.304688 97.113281 53.253906 96.132812 53.214844 C 96.15625 52.90625 96.175781 52.597656 96.199219 52.28125 C 96.195312 51.949219 96.191406 51.617188 96.1875 51.277344 C 95.542969 50.667969 95.183594 50.617188 94.34375 50.425781 C 94.148438 49.902344 94.328125 49.566406 94.507812 49.046875 C 94.683594 48.667969 94.90625 48.320312 95.179688 48.011719 C 95.925781 47.816406 96.617188 47.789062 97.390625 47.761719 C 98.136719 47.691406 98.464844 47.566406 99.078125 47.152344 C 100.53125 46.203125 102.410156 46.148438 104.089844 46.421875 C 105.632812 46.851562 106.613281 47.375 107.03125 48 C 107.539062 48.738281 108.101562 49.25 108.777344 49.835938 C 109.777344 50.699219 110.441406 51.375 110.765625 51.855469 L 110.785156 52.425781 L 107.785156 51.039062 C 107.859375 51.644531 107.957031 52.25 108.066406 52.847656 L 108.527344 53.0625 L 108.742188 52.601562 C 109.085938 52.855469 109.433594 53.105469 109.789062 53.367188 L 110.570312 52.886719 C 110.800781 52.90625 111.027344 52.925781 111.261719 52.945312 C 111.484375 52.949219 111.707031 52.953125 111.9375 52.957031 C 112.21875 52.707031 112.4375 52.4375 112.597656 52.140625 L 112.949219 52.585938 L 112.628906 53.277344 C 112.828125 53.289062 113.027344 53.300781 113.230469 53.3125 L 113.996094 53.351562 C 114.207031 53.351562 114.417969 53.355469 114.632812 53.355469 C 115.460938 53.433594 116.113281 53.65625 116.886719 53.953125 C 117.144531 54.050781 117.398438 54.144531 117.660156 54.246094 C 117.851562 54.320312 118.042969 54.394531 118.242188 54.472656 C 118.320312 53.359375 117.890625 52.5 117.417969 51.519531 C 117.335938 51.34375 117.253906 51.171875 117.167969 50.992188 C 110.449219 37.109375 97.171875 26.339844 81.914062 23.390625 Z M 57.265625 24.597656 C 56.777344 24.832031 56.292969 25.074219 55.808594 25.324219 L 56.734375 25.75 L 56.519531 26.210938 C 56.78125 26.242188 57.046875 26.269531 57.320312 26.300781 C 57.378906 25.773438 57.4375 25.246094 57.496094 24.703125 Z M 55.347656 25.109375 C 55.054688 25.34375 54.761719 25.578125 54.460938 25.820312 C 54.800781 25.882812 55.140625 25.949219 55.488281 26.015625 L 55.808594 25.324219 Z M 103.832031 63.21875 C 103.652344 63.410156 103.46875 63.601562 103.28125 63.800781 L 102.820312 63.589844 C 102.773438 63.289062 102.726562 62.992188 102.679688 62.683594 C 102.300781 62.53125 101.882812 62.429688 101.417969 62.378906 C 100.644531 62.792969 99.992188 63.265625 99.535156 64.03125 C 99.664062 64.53125 99.992188 64.886719 100.527344 65.09375 C 100.839844 65.230469 101.152344 65.367188 101.464844 65.5 C 102.503906 65.953125 103.386719 66.402344 104.292969 67.070312 C 104.703125 67.101562 105.082031 67.089844 105.429688 67.035156 C 105.492188 66 105.160156 65.339844 104.667969 64.441406 C 104.921875 64.097656 105.171875 63.75 105.433594 63.394531 C 104.925781 63.160156 104.378906 63.210938 103.835938 63.21875 Z M 93.699219 59.089844 C 93.550781 59.207031 93.402344 59.324219 93.253906 59.445312 C 93.507812 60.503906 93.878906 61.515625 94.371094 62.480469 L 94.832031 62.695312 C 94.539062 62.882812 94.242188 63.066406 93.945312 63.25 C 93.78125 63.351562 93.613281 63.457031 93.445312 63.558594 C 92.835938 63.816406 92.527344 63.761719 91.902344 63.582031 L 92.113281 63.121094 L 93.035156 63.546875 C 93.523438 62.125 93.078125 61.167969 92.480469 59.847656 C 91.914062 59.03125 91.582031 58.824219 90.636719 58.550781 C 89.445312 58.367188 88.632812 58.476562 87.554688 59.050781 C 87.351562 59.148438 87.148438 59.246094 86.945312 59.347656 C 86.59375 59.535156 86.292969 59.773438 86.035156 60.0625 C 85.25 60.542969 84.578125 60.265625 83.71875 60.078125 L 83.503906 60.539062 C 84.269531 61.175781 84.648438 61.410156 85.664062 61.414062 C 86.84375 61.421875 87.777344 61.800781 88.851562 62.257812 C 89.035156 62.335938 89.21875 62.410156 89.410156 62.488281 C 89.855469 62.671875 90.300781 62.859375 90.746094 63.046875 C 90.574219 63.535156 90.402344 64.023438 90.230469 64.507812 C 90.117188 64.863281 90.1875 65.246094 90.433594 65.652344 C 90.605469 65.839844 90.78125 66.03125 90.957031 66.226562 C 91.515625 66.921875 92.035156 67.578125 92.5 68.339844 L 93.421875 68.765625 C 93.640625 68.496094 93.859375 68.226562 94.082031 67.949219 C 95.042969 68.304688 95.679688 68.765625 96.410156 69.464844 C 97.382812 70.355469 98.316406 70.898438 99.636719 71.082031 C 100.5625 70.84375 100.757812 70.476562 101.316406 69.683594 C 101.453125 69.449219 101.589844 69.210938 101.734375 68.96875 C 101.269531 68.386719 100.808594 68.273438 100.117188 67.996094 C 99.304688 67.625 98.738281 67.1875 98.414062 66.679688 C 98.339844 65.949219 98.414062 65.433594 98.648438 64.742188 L 97.261719 64.101562 C 97.183594 64.324219 97.101562 64.546875 97.019531 64.777344 C 96.753906 65.25 96.402344 65.558594 95.960938 65.703125 C 95.769531 65.71875 95.578125 65.734375 95.378906 65.75 C 95.414062 65.5 95.449219 65.25 95.484375 64.992188 C 95.574219 64.441406 95.515625 63.933594 95.308594 63.476562 C 95.339844 63.285156 95.375 63.089844 95.40625 62.890625 C 95.375 61.863281 94.960938 61.242188 94.445312 60.367188 C 94.265625 60.035156 94.171875 59.683594 94.160156 59.304688 L 93.695312 59.089844 Z M 98.890625 72.695312 C 98.878906 72.894531 98.871094 73.09375 98.859375 73.300781 C 98.824219 73.980469 98.785156 74.664062 98.75 75.34375 C 98.738281 75.582031 98.726562 75.816406 98.714844 76.0625 C 98.6875 76.546875 98.660156 77.035156 98.632812 77.523438 C 98.5 79.789062 98.582031 81.484375 99.449219 83.597656 C 100.175781 83.019531 100.105469 82.226562 100.222656 81.339844 C 100.28125 80.457031 100.183594 79.660156 100.046875 78.789062 C 99.957031 78.140625 99.980469 77.511719 100.015625 76.859375 C 100.035156 75.613281 99.910156 74.363281 99.8125 73.121094 Z M 98.890625 72.695312 " fill-opacity="1" fill-rule="nonzero"/></g></g></g><g clip-path="url(#c3faee5395)"><g clip-path="url(#2e37d6baca)"><g clip-path="url(#124cdbc148)"><path fill="#ffffff" d="M 137.925781 97.878906 L 129.53125 84.238281 C 130.332031 83.75 131.191406 82.964844 131.964844 81.964844 C 132.082031 81.8125 132.050781 81.578125 131.886719 81.464844 L 128.652344 79.152344 C 128.488281 79.035156 128.261719 79.078125 128.15625 79.238281 C 127.832031 79.726562 127.566406 80.210938 127.34375 80.691406 L 126.046875 78.570312 C 126.828125 78.085938 127.667969 77.3125 128.429688 76.328125 C 128.554688 76.175781 128.515625 75.945312 128.351562 75.824219 L 125.125 73.519531 C 124.953125 73.402344 124.730469 73.441406 124.625 73.609375 C 124.3125 74.070312 124.058594 74.539062 123.839844 74.992188 L 121.675781 71.476562 C 123.011719 69.613281 124.601562 67.375 125.566406 66.03125 L 125.5625 66.03125 C 125.683594 65.855469 125.8125 65.679688 125.933594 65.507812 C 129.984375 59.851562 131.734375 53.492188 129.46875 51.871094 C 127.191406 50.246094 121.746094 53.96875 117.710938 59.628906 C 117.582031 59.804688 117.464844 59.976562 117.339844 60.160156 L 117.332031 60.152344 C 116.375 61.496094 114.777344 63.730469 113.441406 65.597656 L 109.421875 64.695312 C 109.777344 64.339844 110.136719 63.945312 110.476562 63.503906 C 110.597656 63.34375 110.5625 63.117188 110.398438 63 L 107.167969 60.695312 C 107 60.578125 106.773438 60.613281 106.667969 60.777344 C 105.980469 61.820312 105.523438 62.867188 105.3125 63.765625 L 102.894531 63.226562 C 103.273438 62.859375 103.640625 62.449219 104.003906 61.992188 C 104.113281 61.828125 104.085938 61.609375 103.917969 61.492188 L 100.6875 59.183594 C 100.523438 59.066406 100.300781 59.09375 100.191406 59.269531 C 99.496094 60.324219 99.027344 61.394531 98.835938 62.304688 L 83.199219 58.789062 C 82.382812 58.605469 81.207031 58.90625 80.578125 59.464844 L 79.015625 60.863281 C 78.855469 61.003906 78.882812 61.191406 79.066406 61.277344 L 107.289062 75.074219 C 103.210938 81.816406 99.882812 87.738281 97.691406 92.140625 L 89.484375 92.308594 C 88.609375 92.324219 87.601562 92.691406 87.230469 93.132812 L 86.8125 93.617188 C 86.667969 93.78125 86.714844 93.972656 86.929688 94.050781 L 95.480469 97.015625 C 94.789062 98.8125 94.582031 99.933594 94.949219 100.203125 C 95.316406 100.460938 96.304688 99.890625 97.769531 98.648438 L 103.367188 105.792969 C 103.496094 105.960938 103.703125 105.949219 103.808594 105.761719 L 104.140625 105.210938 C 104.433594 104.714844 104.453125 103.644531 104.183594 102.808594 L 101.664062 94.949219 C 105.121094 91.421875 109.636719 86.347656 114.6875 80.351562 L 136.910156 102.59375 C 137.058594 102.742188 137.246094 102.707031 137.324219 102.519531 L 138.136719 100.582031 C 138.460938 99.804688 138.367188 98.59375 137.925781 97.878906 " fill-opacity="1" fill-rule="nonzero"/></g></g></g><g clip-path="url(#ffd9deee66)"><g clip-path="url(#32a6c4d6c0)"><g clip-path="url(#8a84f1c1f4)"><g clip-path="url(#6ca53fb40c)"><path fill="#ffffff" d="M 72.898438 113.875 C 66.148438 116.488281 58.511719 117.054688 51.316406 115.347656 C 44.105469 113.660156 37.367188 109.703125 32.273438 104.109375 C 27.152344 98.539062 23.75 91.316406 22.699219 83.65625 C 23.210938 91.363281 26.117188 98.988281 31.035156 105.160156 C 35.925781 111.347656 42.757812 116.09375 50.457031 118.472656 C 58.148438 120.875 66.628906 120.898438 74.476562 118.476562 C 78.40625 117.273438 82.167969 115.464844 85.585938 113.121094 C 89 110.796875 92.121094 107.882812 94.675781 104.675781 L 89.519531 100.738281 C 85.472656 106.648438 79.667969 111.269531 72.898438 113.875 " fill-opacity="1" fill-rule="nonzero"/></g></g></g></g></svg>